<?xml version="1.0" encoding="utf-8"?>
<!-- Generator: Adobe Illustrator 16.0.3, SVG Export Plug-In . SVG Version: 6.00 Build 0)  -->
<!DOCTYPE svg PUBLIC "-//W3C//DTD SVG 1.1//EN" "http://www.w3.org/Graphics/SVG/1.1/DTD/svg11.dtd">
<svg version="1.1" id="outline" xmlns="http://www.w3.org/2000/svg" xmlns:xlink="http://www.w3.org/1999/xlink" x="0px" y="0px"
	 width="800px" height="800px" viewBox="0 0 800 800" enable-background="new 0 0 800 800" xml:space="preserve">
<path fill="#0068B6" d="M766.504,246.156c-20.037-47.375-48.718-89.917-85.244-126.443c-36.525-36.526-79.067-65.207-126.441-85.245
	C505.757,13.717,453.655,3.195,399.962,3.195S294.167,13.717,245.106,34.468c-47.375,20.038-89.917,48.718-126.443,85.245
	s-65.207,79.068-85.245,126.443c-13.495,31.906-22.659,65.098-27.421,99.177l-0.677,0.38c0.112,0.2,0.281,0.494,0.502,0.865
	c-2.446,17.92-3.677,36.084-3.677,54.434c0,53.693,10.522,105.794,31.273,154.855c20.038,47.375,48.719,89.916,85.245,126.442
	c36.526,36.526,79.068,65.207,126.443,85.244c49.062,20.752,101.163,31.273,154.856,31.273s105.795-10.521,154.856-31.273
	c47.374-20.037,89.916-48.718,126.441-85.244c36.526-36.526,65.207-79.067,85.244-126.442
	c20.752-49.062,31.273-101.162,31.273-154.855S787.256,295.217,766.504,246.156z M634.933,391.307
	c-0.813-58.8-9.019-115.528-23.818-166.877c26.286-5.529,51.044-12.05,73.597-19.446c25.958,37.59,44.673,80.546,54.11,126.837
	c-8.839,9.152-24.671,22.74-50.678,36.697C674.217,375.992,656.683,383.89,634.933,391.307z M116.523,371.212
	c-28.382-14.455-45.769-28.943-55.535-38.821c9.399-46.506,28.158-89.659,54.221-127.402c22.549,7.402,47.299,13.932,73.594,19.463
	c-14.802,51.361-23.005,108.104-23.813,166.918C145.499,384.763,129.484,377.813,116.523,371.212z M216.923,401.012
	c0-59.503,8.081-116.615,23.305-167.31c42.897,6.508,88.328,10.515,133.772,11.632v178.22c-63.977-1.49-115.675-8.418-157.044-17.72
	C216.944,404.227,216.923,402.623,216.923,401.012z M426,58.847c36.545,10.281,71.031,42.047,99.11,91.992
	c5.884,10.466,11.35,21.493,16.386,33.01c-37.183,5.214-76.287,8.463-115.496,9.471V58.847z M374,58.824v134.499
	c-39.265-1.003-78.393-4.248-115.58-9.458c5.038-11.523,10.505-22.555,16.392-33.026C302.912,100.86,337.427,69.083,374,58.824z
	 M219.601,459.649c46.28,9.332,98.051,14.674,154.399,15.919v108.028c-44.275,0.867-86.55,3.953-125.707,9.104
	C233.733,552.458,223.992,507.344,219.601,459.649z M374,635.604v107.595c-36.573-10.259-71.088-42.036-99.188-92.016
	c-1.625-2.892-3.208-5.841-4.769-8.815C302.675,638.625,337.556,636.339,374,635.604z M426,743.175v-107.57
	c36.416,0.737,71.271,3.022,103.88,6.762c-1.562,2.976-3.144,5.925-4.77,8.816C497.031,701.128,462.545,732.894,426,743.175z
	 M426,583.598V475.568c56.359-1.246,108.105-6.592,154.323-15.932c-4.391,47.699-14.132,92.818-28.693,133.063
	C512.496,587.553,470.248,584.468,426,583.598z M426,423.554V245.331c45.384-1.122,90.794-5.134,133.69-11.645
	C574.917,284.385,583,341.502,583,401.012c0,1.611-0.021,3.215-0.032,4.822C541.53,415.18,489.872,422.069,426,423.554z
	 M649.204,161.529c-17.293,4.986-35.769,9.455-55.108,13.366c-7.043-17.445-14.934-34.022-23.658-49.54
	c-7.691-13.68-15.892-26.302-24.558-37.847C584.792,105.693,619.78,130.918,649.204,161.529z M254.043,87.51
	c-8.666,11.544-16.866,24.166-24.558,37.846c-8.728,15.523-16.621,32.106-23.666,49.559c-19.346-3.913-37.826-8.381-55.114-13.371
	C180.132,130.926,215.124,105.697,254.043,87.51z M54.216,394.342c9.235,6.536,20.027,13.304,32.596,20.018
	c23.488,12.547,50.153,23.29,79.607,32.104c3.611,54.991,13.747,107.505,29.759,154.675c-23.582,4.593-45.605,10.035-65.762,16.284
	c-47.695-59.287-76.271-134.574-76.271-216.411C54.146,398.783,54.174,396.561,54.216,394.342z M171.013,659.974
	c14.163-3.612,29.17-6.847,44.915-9.692c4.274,9.085,8.787,17.899,13.558,26.386c7.691,13.68,15.892,26.302,24.557,37.846
	C223.726,700.346,195.79,681.905,171.013,659.974z M545.88,714.514c8.666-11.545,16.866-24.166,24.558-37.847
	c4.771-8.486,9.284-17.301,13.559-26.387c15.745,2.847,30.752,6.081,44.915,9.693C604.133,681.905,576.197,700.346,545.88,714.514z
	 M669.507,617.423c-20.156-6.249-42.181-11.691-65.762-16.284c16.016-47.185,26.152-99.715,29.762-154.725
	c29.334-8.81,55.87-19.543,79.225-32.077c12.755-6.845,23.667-13.746,32.968-20.403c0.048,2.354,0.078,4.712,0.078,7.078
	C745.777,482.849,717.202,558.136,669.507,617.423z"/>
</svg>
